<svg version="1.1" id="Layer_1" xmlns="http://www.w3.org/2000/svg" xmlns:xlink="http://www.w3.org/1999/xlink" x="0px" y="0px"
	 width="100%" viewBox="0 0 496 496" enable-background="new 0 0 496 496" xml:space="preserve">
<path fill="#000000" opacity="1.000000" stroke="none" 
	d="
M295.429626,243.562531 
	C280.884918,227.998932 266.573212,212.700058 252.698578,197.868439 
	C247.451324,202.616608 242.259659,206.767822 237.713470,211.534653 
	C225.874573,223.948181 214.256027,236.574493 202.696808,249.250168 
	C200.005203,252.201782 197.115967,253.396637 193.111877,253.357010 
	C175.454971,253.182236 157.795273,253.289383 140.136597,253.284103 
	C138.805542,253.283707 137.469177,253.261902 136.145020,253.142227 
	C134.865875,253.026627 133.947525,252.425644 133.897995,250.967560 
	C133.848404,249.507004 134.654373,248.654846 135.994431,248.798584 
	C140.587006,249.291168 142.803589,245.952606 145.395462,243.192184 
	C158.506210,229.228745 171.646133,215.292358 184.682953,201.260193 
	C186.755280,199.029663 188.878586,198.458084 191.789337,199.081940 
	C204.636978,201.835556 217.536682,204.348862 230.367950,207.174362 
	C233.376175,207.836777 235.290817,207.132996 237.383942,204.966812 
	C242.545807,199.624847 246.994034,193.595444 252.885712,188.931290 
	C248.312164,185.866348 238.812561,188.193085 236.204575,194.409988 
	C232.741119,202.666107 227.629318,203.464462 220.063171,201.525192 
	C214.920654,200.207092 209.374924,199.908737 204.996521,196.761047 
	C196.397644,190.579163 196.763367,177.396042 206.059601,171.746719 
	C211.959900,168.161133 217.504395,163.950089 224.229187,161.526825 
	C260.917847,148.306168 303.965424,163.377228 324.048004,199.830536 
	C324.717773,201.046249 325.918121,202.203064 325.274994,204.237793 
	C321.888245,202.441437 319.889801,199.341553 317.285858,196.958237 
	C315.319183,195.158188 313.633759,192.859634 310.443878,194.410965 
	C310.163025,194.547531 309.655579,194.658569 309.482025,194.511551 
	C303.691284,189.605560 299.501373,195.192963 295.264191,197.209549 
	C286.836975,201.220245 278.097107,202.193985 269.065430,202.073181 
	C266.225403,202.035202 264.297882,199.921982 262.355743,198.084091 
	C260.390350,196.224197 258.414246,194.375595 256.442810,192.522049 
	C256.139221,192.841019 255.835602,193.159973 255.531998,193.478943 
	C259.685822,197.907928 263.819702,202.355896 268.005493,206.754440 
	C269.273163,208.086533 270.776794,207.323303 272.230286,207.013168 
	C284.752380,204.341202 297.303345,201.798157 309.792084,198.979309 
	C313.744995,198.087112 316.554138,198.692535 319.449585,201.854919 
	C332.945099,216.594604 346.716431,231.081512 360.345581,245.699417 
	C362.009766,247.484329 363.694458,248.826950 366.322083,248.710693 
	C367.949463,248.638702 370.001495,248.625916 369.670715,251.175461 
	C369.374878,253.455475 367.400787,253.271072 365.760254,253.279327 
	C359.429962,253.311218 353.099457,253.287384 346.769012,253.287399 
	C335.440796,253.287399 324.100555,252.978714 312.789246,253.416641 
	C306.762695,253.649963 302.091888,252.227921 298.653595,247.179108 
	C297.817902,245.951981 296.668030,244.938828 295.429626,243.562531 
M188.995911,205.974533 
	C186.492004,203.612579 185.471664,206.269150 184.283386,207.528137 
	C176.280518,216.007202 168.299652,224.509048 160.443405,233.123672 
	C156.011551,237.983322 150.962830,242.323471 147.243576,247.893753 
	C147.785309,248.227432 148.050995,248.533691 148.318497,248.535294 
	C158.314133,248.595261 168.309921,248.654694 178.305695,248.656815 
	C196.839676,248.660751 196.839661,248.645874 209.181747,234.985397 
	C209.293427,234.861786 209.397385,234.727722 209.524506,234.622070 
	C212.175644,232.418762 211.921097,230.430634 209.566238,227.976242 
	C202.763184,220.885712 196.155273,213.607941 188.995911,205.974533 
M340.192780,230.305283 
	C332.193146,221.731995 324.193512,213.158722 315.954102,204.328461 
	C308.039124,212.767776 300.830292,220.610428 293.423065,228.260971 
	C291.070892,230.690399 291.533600,232.422089 293.629303,234.543442 
	C297.257477,238.216049 300.842407,241.939301 304.280945,245.788284 
	C306.231445,247.971634 308.459808,248.717560 311.331909,248.695541 
	C324.157562,248.597076 336.984528,248.686371 349.810699,248.630157 
	C351.727112,248.621750 353.756042,249.188889 355.693970,248.044632 
	C355.512726,247.517136 355.480164,246.965057 355.190491,246.647614 
	C350.365356,241.360092 345.507965,236.101974 340.192780,230.305283 
M207.878983,209.304520 
	C206.321930,211.680771 208.267578,214.228592 206.974411,216.852463 
	C210.518417,217.383606 213.496338,218.650665 216.636963,217.525986 
	C218.391785,216.897583 220.126343,215.863190 220.037567,213.729691 
	C219.949707,211.618423 218.251495,210.620544 216.365662,210.266769 
	C213.772980,209.780365 211.141052,209.503235 207.878983,209.304520 
z"/>
<path fill="#000000" opacity="1.000000" stroke="none" 
	d="
M271.233704,144.593781 
	C314.784332,153.029892 345.509735,191.214127 348.057465,223.898956 
	C342.352509,219.163483 337.172211,214.955475 334.469910,208.503036 
	C323.190277,181.570007 304.111786,162.711563 276.516388,152.861740 
	C255.740921,145.446182 234.817505,145.612991 213.915817,152.550949 
	C212.653214,152.970047 211.404739,153.434601 210.130295,153.812698 
	C209.879440,153.887115 209.539246,153.660416 207.758560,153.137405 
	C228.690353,143.199890 249.215225,140.218689 271.233704,144.593781 
z"/>
<path fill="#000000" opacity="1.000000" stroke="none" 
	d="
M157.582458,277.638184 
	C158.217651,275.859619 158.604904,274.398346 159.242188,273.055756 
	C160.144318,271.155182 161.852875,270.653168 163.839951,270.811829 
	C165.932831,270.978943 166.791321,272.428467 166.836273,274.185181 
	C167.113022,284.996063 167.299011,295.809570 167.458206,306.623016 
	C167.490860,308.839172 165.953262,309.309265 164.069321,309.284973 
	C161.765564,309.255219 160.791260,308.010864 160.719193,305.841919 
	C160.588730,301.915619 160.825821,297.953003 159.502579,293.596039 
	C157.721649,298.011688 156.286011,302.070007 154.468399,305.949341 
	C152.285141,310.609039 149.078247,310.802216 146.495514,306.381287 
	C144.340485,302.692444 142.650803,298.731750 140.503433,294.381805 
	C139.578598,298.453278 139.261429,302.003357 139.296295,305.595612 
	C139.319763,308.014679 138.265381,309.254730 135.706131,309.299622 
	C133.136734,309.344666 131.942932,308.077057 131.993134,305.708527 
	C132.211609,295.402863 132.502319,285.098633 132.812347,274.795197 
	C132.866165,273.006287 133.584930,271.464508 135.546768,271.121033 
	C137.763290,270.733032 139.547699,271.612366 140.431610,273.700134 
	C142.764496,279.210358 144.997528,284.763031 147.247314,290.308136 
	C147.921677,291.970245 148.187210,293.850128 150.581421,295.495453 
	C152.922333,289.532288 155.184235,283.770386 157.582458,277.638184 
z"/>
<path fill="#000000" opacity="1.000000" stroke="none" 
	d="
M445.898499,292.002197 
	C446.149384,285.855347 446.459381,280.207733 446.630707,274.555939 
	C446.704742,272.113251 447.731964,270.768250 450.204712,270.778717 
	C455.013580,270.799103 459.857025,270.217529 464.583282,271.704315 
	C470.411713,273.537903 473.419769,278.164154 471.818176,284.000702 
	C470.914032,287.295624 471.375732,289.944916 472.582825,293.038727 
	C475.894012,301.525391 470.711975,309.013153 461.623230,309.310699 
	C458.130127,309.425018 454.622345,309.199371 451.136566,309.398041 
	C447.138519,309.625946 445.790222,307.657990 445.877289,303.988220 
	C445.968140,300.160706 445.900024,296.329376 445.898499,292.002197 
M460.233887,301.881683 
	C463.066833,301.777924 466.065430,301.216827 465.698517,297.700897 
	C465.235687,293.265747 461.335754,293.572479 458.036438,293.333496 
	C454.980713,293.112213 454.113953,294.560669 453.993958,297.464905 
	C453.820740,301.657715 456.307098,301.985748 460.233887,301.881683 
M459.136841,286.640137 
	C462.119995,286.592499 464.849365,285.602295 464.397583,282.204193 
	C463.895264,278.425690 460.493195,278.287903 457.390808,278.218140 
	C454.376404,278.150391 453.446014,279.675568 453.292633,282.531250 
	C453.079163,286.506012 455.343811,286.883972 459.136841,286.640137 
z"/>
<path fill="#000000" opacity="1.000000" stroke="none" 
	d="
M177.677063,179.690460 
	C204.410156,151.354111 244.758224,146.327988 266.531342,154.562820 
	C258.069580,154.753357 250.678223,153.090942 243.072083,153.957291 
	C207.305313,158.031143 182.332840,176.403122 168.142700,209.394485 
	C165.411102,215.745300 160.092651,219.532776 155.256424,223.995438 
	C157.705490,206.753479 165.869308,192.496445 177.677063,179.690460 
z"/>
<path fill="#000000" opacity="1.000000" stroke="none" 
	d="
M412.958252,273.485352 
	C414.389832,270.347229 416.722870,270.380707 419.037933,271.138794 
	C421.416656,271.917755 421.317535,274.138794 421.318390,276.155518 
	C421.321350,283.135773 421.429596,290.118652 421.274292,297.095581 
	C421.088074,305.463776 415.877106,310.440460 407.718567,310.329620 
	C399.193115,310.213806 394.744720,305.651459 394.670410,296.866669 
	C394.612823,290.053192 394.611359,283.239105 394.611389,276.425293 
	C394.611420,273.745880 394.291382,270.841309 398.344269,270.781006 
	C402.713623,270.716003 402.336517,273.799835 402.336151,276.663239 
	C402.335449,282.147736 402.328949,287.632294 402.342773,293.116760 
	C402.346130,294.444794 402.252441,295.803741 402.493011,297.094482 
	C403.103119,300.367889 404.848938,302.682159 408.481049,302.560364 
	C412.042206,302.440918 413.401367,299.790375 413.509216,296.813660 
	C413.683105,292.011993 413.371368,287.191437 413.226501,282.380005 
	C413.141602,279.560364 412.982605,276.742950 412.958252,273.485352 
z"/>
<path fill="#000000" opacity="1.000000" stroke="none" 
	d="
M342.670685,282.033081 
	C342.681427,279.212067 342.680756,276.885040 342.706940,274.558289 
	C342.730377,272.478180 343.461670,270.895142 345.843903,270.972656 
	C347.932709,271.040649 349.190857,272.121765 349.378998,274.358124 
	C349.615631,277.170654 350.262573,279.975281 350.230713,282.777588 
	C350.183990,286.887177 352.782898,287.099976 355.537933,286.507141 
	C358.352356,285.901489 362.930023,287.399719 362.416199,281.745911 
	C362.206573,279.439392 362.054779,277.105103 362.168243,274.797760 
	C362.295227,272.214478 363.993683,270.872955 366.483215,270.988739 
	C368.779175,271.095520 369.463226,272.905426 369.459198,274.885956 
	C369.438263,285.160797 369.368164,295.435638 369.290985,305.710297 
	C369.277374,307.520813 368.740509,309.069550 366.583405,309.192383 
	C364.363068,309.318787 363.114532,308.059753 362.927551,305.966705 
	C362.706177,303.488556 362.627991,300.983978 362.698975,298.496857 
	C362.782715,295.563599 361.586670,294.418182 358.590149,294.278198 
	C350.464050,293.898651 350.474182,293.781860 350.246368,302.144318 
	C350.214752,303.305634 350.192932,304.477325 350.021973,305.622589 
	C349.696625,307.802612 348.777100,309.454376 346.168762,309.200592 
	C343.603607,308.951050 342.902283,307.035980 342.843262,304.963623 
	C342.687103,299.482361 342.719238,293.995697 342.682800,288.511139 
	C342.669556,286.516571 342.674377,284.521851 342.670685,282.033081 
z"/>
<path fill="#000000" opacity="1.000000" stroke="none" 
	d="
M268.344421,286.999176 
	C268.339478,290.828888 268.406647,294.163055 268.320038,297.493195 
	C268.120911,305.151215 263.254059,310.129578 255.881119,310.313934 
	C247.573898,310.521667 242.165863,306.084839 241.801971,298.107056 
	C241.453049,290.458099 241.719055,282.781921 241.669983,275.118011 
	C241.651688,272.260406 242.860947,270.765076 245.837967,270.789398 
	C248.770752,270.813354 249.454453,272.590027 249.441818,275.059937 
	C249.411133,281.054962 249.388870,287.050232 249.404480,293.045258 
	C249.408356,294.536133 249.295746,296.108521 249.713089,297.500610 
	C250.645309,300.610046 252.556580,302.947144 256.169067,302.554749 
	C259.668182,302.174652 260.758209,299.588959 260.735046,296.454865 
	C260.685822,289.793365 260.691925,283.126007 260.386169,276.474365 
	C260.250916,273.531433 260.039948,270.942230 263.940094,270.817200 
	C267.485413,270.703491 268.451202,272.858246 268.360870,276.006317 
	C268.260559,279.502075 268.343536,283.003082 268.344421,286.999176 
z"/>
<path fill="#000000" opacity="1.000000" stroke="none" 
	d="
M310.965210,271.422974 
	C312.253296,271.989868 313.201691,272.334015 314.054718,272.839264 
	C316.290894,274.163879 318.509949,275.571655 316.702301,278.712585 
	C314.975433,281.713104 312.793976,281.076904 310.392944,279.535248 
	C309.145630,278.734375 307.765106,278.015656 306.344269,277.637421 
	C303.705475,276.934937 301.689819,278.158813 300.662231,280.526581 
	C299.466156,283.282684 301.515900,284.466125 303.614044,285.333038 
	C305.611298,286.158264 307.676178,286.821533 309.718201,287.536377 
	C316.817291,290.021423 320.220123,294.798737 319.173645,300.827667 
	C318.238953,306.212463 312.268219,310.458954 305.470490,310.163879 
	C301.091614,309.973755 296.928192,308.812927 293.731812,305.410736 
	C292.173676,303.752289 291.424011,302.195465 293.305969,300.253571 
	C294.922211,298.585815 296.586487,297.980255 298.541992,299.600098 
	C300.906891,301.559052 303.419952,303.124054 306.667053,302.787567 
	C308.823303,302.564117 310.679565,301.542236 311.217590,299.450348 
	C311.812103,297.138702 309.677124,296.337402 308.058960,295.602325 
	C305.487610,294.434235 302.816437,293.484894 300.183167,292.454132 
	C294.178833,290.103638 291.959717,286.563202 292.739410,280.561401 
	C293.439209,275.174835 297.930115,271.064758 303.668793,270.698212 
	C305.983582,270.550323 308.338104,270.369446 310.965210,271.422974 
z"/>
<path fill="#000000" opacity="1.000000" stroke="none" 
	d="
M88.924179,276.073914 
	C89.902428,273.314362 90.662781,270.776062 93.910355,270.881134 
	C96.982254,270.980499 97.356750,273.684509 98.179253,275.751465 
	C101.929970,285.177063 105.608704,294.631836 109.230148,304.107910 
	C109.830887,305.679840 111.297028,307.744995 108.825401,308.864227 
	C106.786064,309.787720 104.663078,309.565857 103.036888,307.470154 
	C99.952202,303.494873 93.072289,301.611908 88.739517,303.353485 
	C87.144981,303.994415 86.686859,305.440735 86.082855,306.783752 
	C84.737915,309.774261 82.070839,309.922913 79.756508,308.958984 
	C77.113419,307.858154 78.760025,305.570099 79.363052,303.803925 
	C82.479683,294.675629 85.644707,285.563904 88.924179,276.073914 
M92.139610,289.714203 
	C91.644478,291.411011 90.272644,292.881012 90.794861,295.076782 
	C92.997169,295.672241 95.168587,296.064728 97.578018,294.718079 
	C96.884712,291.564697 95.833633,288.769836 93.819122,285.781586 
	C93.148338,287.280609 92.745148,288.181610 92.139610,289.714203 
z"/>
<path fill="#000000" opacity="1.000000" stroke="none" 
	d="
M198.633514,308.844788 
	C194.423767,309.876923 192.613770,308.461823 192.646988,304.427979 
	C192.725037,294.949890 192.754059,285.468414 192.572037,275.992737 
	C192.498337,272.156921 193.886398,270.498230 197.782608,270.672363 
	C201.926178,270.857605 206.060272,270.663574 210.185226,271.540741 
	C216.257919,272.832184 219.418152,276.498810 219.286011,282.646912 
	C219.165100,288.273193 215.607086,292.320618 210.115601,293.459869 
	C206.892319,294.128571 202.711227,292.916687 200.615921,295.260529 
	C198.484009,297.645355 200.537827,301.634644 200.169449,304.913055 
	C200.020142,306.241699 200.031158,307.580627 198.633514,308.844788 
M199.370193,281.606049 
	C199.492737,283.677490 198.834137,286.350189 201.996796,286.591400 
	C205.253769,286.839752 208.782471,287.323761 211.045944,284.011963 
	C211.965378,282.666718 211.850525,281.177551 210.818344,279.851074 
	C208.585510,276.981567 201.524445,277.567963 199.370193,281.606049 
z"/>
<path fill="#000000" opacity="1.000000" stroke="none" 
	d="
M42.792866,278.844360 
	C36.307220,283.182129 35.412689,295.289337 40.999222,299.975067 
	C44.028763,302.516144 47.413708,302.505859 50.720074,300.458618 
	C52.950741,299.077454 55.188721,297.532318 57.115971,300.600983 
	C59.066669,303.706970 56.818813,305.624725 54.614735,307.199066 
	C47.269928,312.445282 36.492771,309.857483 32.374634,301.875793 
	C28.451784,294.272583 28.495905,286.417603 31.840128,278.730713 
	C35.570751,270.155670 47.810802,267.645447 54.803143,273.819611 
	C56.657448,275.456940 58.840206,277.360535 57.020676,280.168579 
	C55.077423,283.167572 52.651100,282.270142 50.149544,280.586792 
	C48.079498,279.193787 45.809711,278.058868 42.792866,278.844360 
z"/>
<path fill="#000000" opacity="1.000000" stroke="none" 
	d="
M261.135193,252.396179 
	C257.872375,251.966904 253.275116,254.746185 253.394836,248.455765 
	C253.464966,244.770721 254.407150,242.521561 258.762238,242.825073 
	C263.058136,243.124466 263.258759,245.842743 263.121429,249.020477 
	C263.063507,250.360077 262.991425,251.690109 261.135193,252.396179 
z"/>
<path fill="#000000" opacity="1.000000" stroke="none" 
	d="
M250.132721,247.222900 
	C250.517944,250.953659 249.299866,252.607346 245.739960,252.446869 
	C242.930710,252.320221 240.251190,252.350006 240.244644,248.539703 
	C240.240799,246.299789 239.686829,243.475876 242.962708,243.095245 
	C245.979614,242.744675 249.564011,242.019104 250.132721,247.222900 
z"/>
<path fill="#000000" opacity="1.000000" stroke="none" 
	d="
M253.922455,231.699890 
	C259.253723,231.086868 260.685822,234.588821 261.847900,238.511353 
	C255.350525,241.873413 253.416275,240.231537 253.922455,231.699890 
z"/>
<path fill="#000000" opacity="1.000000" stroke="none" 
	d="
M242.284485,236.987244 
	C243.109283,233.374298 245.283173,231.710220 248.731750,231.262299 
	C250.717819,233.875153 250.672501,236.712830 248.397720,238.717392 
	C246.349777,240.522064 243.792969,240.247177 242.284485,236.987244 
z"/>
<path fill="#000000" opacity="1.000000" stroke="none" 
	d="
M314.413147,238.582108 
	C311.923218,239.451080 310.050568,239.426727 309.961975,236.475601 
	C309.919678,235.066223 310.902893,234.333771 312.178284,234.344742 
	C314.924255,234.368378 315.531799,235.923233 314.413147,238.582108 
z"/>
<path fill="#000000" opacity="1.000000" stroke="none" 
	d="
M317.537933,238.375198 
	C316.720245,236.269501 316.780151,234.623138 319.122955,234.402542 
	C320.651611,234.258621 321.786255,235.220947 321.538513,236.844147 
	C321.204224,239.034332 319.676300,239.350266 317.537933,238.375198 
z"/>
</svg>